<svg width="80" height="80" viewBox="0 0 80 80" fill="none" xmlns="http://www.w3.org/2000/svg">
<g filter="url(#filter0_f_102_143)">
<rect x="10" y="44.054" width="34.0541" height="8.64865" fill="#DAA032"/>
<rect x="10" y="26.7567" width="34.0541" height="8.64865" fill="#DAA032"/>
<rect x="10" y="10" width="34.0541" height="8.64865" fill="#DAA032"/>
<rect x="10" y="47.8378" width="37.8378" height="12.973" transform="rotate(-90 10 47.8378)" fill="#DAA032"/>
<path d="M57.027 18.6487H33.5L44.0541 10L50.5406 14.3243L57.027 18.6487Z" fill="#DAA032"/>
<rect x="36.4865" y="61.3513" width="32.973" height="8.64865" fill="#DAA032"/>
<rect x="57.027" y="70" width="42.7027" height="12.973" transform="rotate(-90 57.027 70)" fill="#DAA032"/>
<path d="M23.5135 61.3513H44.5L36.4865 70L30 65.6757L23.5135 61.3513Z" fill="#DAA032"/>
<path d="M70 27.2973L57.027 33.5V18.6487L63.5135 22.973L70 27.2973Z" fill="#DAA032"/>
</g>
<rect x="10" y="44.054" width="34.0541" height="8.64865" fill="#E9EEEF"/>
<rect x="10" y="26.7567" width="34.0541" height="8.64865" fill="#E9EEEF"/>
<rect x="10" y="10" width="34.0541" height="8.64865" fill="#E9EEEF"/>
<rect x="10" y="47.8378" width="37.8378" height="12.973" transform="rotate(-90 10 47.8378)" fill="#E9EEEF"/>
<path d="M57.027 18.6487H33.5L44.0541 10L50.5406 14.3243L57.027 18.6487Z" fill="#E9EEEF"/>
<rect x="36.4865" y="61.3513" width="32.973" height="8.64865" fill="#E9EEEF"/>
<rect x="57.027" y="70" width="42.7027" height="12.973" transform="rotate(-90 57.027 70)" fill="#E9EEEF"/>
<path d="M23.5135 61.3513H44.5L36.4865 70L30 65.6757L23.5135 61.3513Z" fill="#E9EEEF"/>
<path d="M70 27.2973L57.027 33.5V18.6487L63.5135 22.973L70 27.2973Z" fill="#E9EEEF"/>
<defs>
<filter id="filter0_f_102_143" x="0" y="0" width="80" height="80" filterUnits="userSpaceOnUse" color-interpolation-filters="sRGB">
<feFlood flood-opacity="0" result="BackgroundImageFix"/>
<feBlend mode="normal" in="SourceGraphic" in2="BackgroundImageFix" result="shape"/>
<feGaussianBlur stdDeviation="5" result="effect1_foregroundBlur_102_143"/>
</filter>
</defs>
</svg>
